<?xml version="1.0" encoding="utf-8"?>
<!-- Generator: Adobe Illustrator 24.1.2, SVG Export Plug-In . SVG Version: 6.00 Build 0)  -->
<svg version="1.1" id="Calque_1" focusable="false" xmlns="http://www.w3.org/2000/svg" xmlns:xlink="http://www.w3.org/1999/xlink"
	 x="0px" y="0px" viewBox="0 0 448 512" style="enable-background:new 0 0 448 512;" xml:space="preserve">
<style type="text/css">
	.st0{fill:#FFFFFF;}
</style>
<path class="st0" d="M16,132h416c8.84,0,16-7.16,16-16V76c0-8.84-7.16-16-16-16H16C7.16,60,0,67.16,0,76v40
	C0,124.84,7.16,132,16,132z M16,292h416c8.84,0,16-7.16,16-16v-40c0-8.84-7.16-16-16-16H16c-8.84,0-16,7.16-16,16v40
	C0,284.84,7.16,292,16,292z M16,452h416c8.84,0,16-7.16,16-16v-40c0-8.84-7.16-16-16-16H16c-8.84,0-16,7.16-16,16v40
	C0,444.84,7.16,452,16,452z"/>
</svg>
