<?xml version="1.0" encoding="utf-8"?>
<!-- Generator: Adobe Illustrator 24.1.2, SVG Export Plug-In . SVG Version: 6.00 Build 0)  -->
<svg version="1.1" id="Calque_1" xmlns="http://www.w3.org/2000/svg" xmlns:xlink="http://www.w3.org/1999/xlink" x="0px" y="0px"
	 viewBox="0 0 3000 3000" style="enable-background:new 0 0 3000 3000;" xml:space="preserve">
<g>
	<path d="M2020.64,1831.13c-239.25-86.27-315.7-159.07-315.7-314.89c0-17.2,2.47-30.16,6.71-40.98
		c18.77-48.15,72.22-53.51,98.41-193.34c13.32-71.08,77.84-1.16,90.17-163.38c0-64.64-35.24-80.73-35.24-80.73
		s17.9-95.7,24.92-169.33c8.7-91.74-53.56-328.81-385.63-328.81c-1.43,0-2.79,0.08-4.18,0.1c-1.41-0.02-2.77-0.1-4.22-0.1
		c-332.05,0-394.31,237.07-385.61,328.81c7,73.63,24.92,169.33,24.92,169.33s-35.24,16.08-35.24,80.73
		c12.35,162.22,76.88,92.3,90.19,163.38c26.17,139.83,79.64,145.18,98.41,193.34c4.21,10.8,6.69,23.78,6.69,40.98
		c0,155.82-76.45,228.62-315.7,314.89c-239.99,86.54-347.93,174.78-347.93,234.98v394.22h1736.95V2066.1
		C2368.57,2005.91,2260.64,1917.67,2020.64,1831.13L2020.64,1831.13z M2020.64,1831.13"/>
</g>
</svg>
